<svg width="204" height="17" viewBox="0 0 204 17" fill="none" xmlns="http://www.w3.org/2000/svg">
<circle cx="6.5" cy="8.5" r="5.5" stroke="#596386" stroke-opacity="0.3" stroke-width="2"/>
<circle opacity="0.3" cx="24.5" cy="8.5" r="1.5" fill="#596386"/>
<circle opacity="0.3" cx="37.5" cy="8.5" r="1.5" fill="#596386"/>
<circle opacity="0.3" cx="50.5" cy="8.5" r="1.5" fill="#596386"/>
<circle opacity="0.3" cx="63.5" cy="8.5" r="1.5" fill="#596386"/>
<circle opacity="0.3" cx="76.5" cy="8.5" r="1.5" fill="#596386"/>
<circle opacity="0.3" cx="89.5" cy="8.5" r="1.5" fill="#596386"/>
<circle opacity="0.3" cx="102.5" cy="8.5" r="1.5" fill="#596386"/>
<circle opacity="0.3" cx="115.5" cy="8.5" r="1.5" fill="#596386"/>
<circle opacity="0.3" cx="128.5" cy="8.5" r="1.5" fill="#596386"/>
<circle opacity="0.3" cx="141.5" cy="8.5" r="1.5" fill="#596386"/>
<circle opacity="0.3" cx="154.5" cy="8.5" r="1.5" fill="#596386"/>
<circle opacity="0.3" cx="167.5" cy="8.5" r="1.5" fill="#596386"/>
<circle opacity="0.3" cx="180.5" cy="8.5" r="1.5" fill="#596386"/>
<path opacity="0.3" d="M202.131 7.18989C203.04 7.82694 203.04 9.17306 202.131 9.81011L196.018 14.0956C194.958 14.839 193.5 14.0804 193.5 12.7855L193.5 4.21452C193.5 2.91956 194.958 2.16104 196.018 2.90441L202.131 7.18989Z" fill="#596386"/>
</svg>
