<svg width="12" height="14" viewBox="0 0 12 14" fill="none" xmlns="http://www.w3.org/2000/svg">
<path d="M10.2907 2.09633H8.04337V1.68773C8.04337 1.01182 7.49346 0.461914 6.81755 0.461914H5.18313C4.50722 0.461914 3.95732 1.01182 3.95732 1.68773V2.09633H1.70999C1.14673 2.09633 0.688477 2.55458 0.688477 3.11785V4.54797C0.688477 4.77362 0.871429 4.95657 1.09708 4.95657H1.32038L1.67339 12.3698C1.70458 13.0245 2.2424 13.5373 2.8978 13.5373H9.10288C9.75831 13.5373 10.2961 13.0245 10.3273 12.3698L10.6803 4.95657H10.9036C11.1293 4.95657 11.3122 4.77362 11.3122 4.54797V3.11785C11.3122 2.55458 10.854 2.09633 10.2907 2.09633ZM4.77453 1.68773C4.77453 1.46243 4.95784 1.27912 5.18313 1.27912H6.81755C7.04285 1.27912 7.22616 1.46243 7.22616 1.68773V2.09633H4.77453V1.68773ZM1.50569 3.11785C1.50569 3.0052 1.59734 2.91354 1.70999 2.91354H10.2907C10.4033 2.91354 10.495 3.0052 10.495 3.11785V4.13936C10.3691 4.13936 2.0275 4.13936 1.50569 4.13936V3.11785ZM9.511 12.3309C9.50061 12.5491 9.32133 12.7201 9.10288 12.7201H2.8978C2.67933 12.7201 2.50005 12.5491 2.48968 12.3309L2.13851 4.95657H9.86217L9.511 12.3309Z" fill="#FF5252"/>
<path d="M6.0004 11.9025C6.22605 11.9025 6.40901 11.7196 6.40901 11.4939V6.18204C6.40901 5.95639 6.22605 5.77344 6.0004 5.77344C5.77475 5.77344 5.5918 5.95639 5.5918 6.18204V11.4939C5.5918 11.7196 5.77472 11.9025 6.0004 11.9025Z" fill="#FF5252"/>
<path d="M8.04337 11.9025C8.26902 11.9025 8.45198 11.7196 8.45198 11.4939V6.18204C8.45198 5.95639 8.26902 5.77344 8.04337 5.77344C7.81772 5.77344 7.63477 5.95639 7.63477 6.18204V11.4939C7.63477 11.7196 7.81769 11.9025 8.04337 11.9025Z" fill="#FF5252"/>
<path d="M3.95743 11.9025C4.18309 11.9025 4.36604 11.7196 4.36604 11.4939V6.18204C4.36604 5.95639 4.18309 5.77344 3.95743 5.77344C3.73178 5.77344 3.54883 5.95639 3.54883 6.18204V11.4939C3.54883 11.7196 3.73176 11.9025 3.95743 11.9025Z" fill="#FF5252"/>
</svg>
