<svg id="svg" version="1.1" xmlns="http://www.w3.org/2000/svg" xmlns:xlink="http://www.w3.org/1999/xlink" width="400" height="400" viewBox="0, 0, 400,400"><g id="svgg"><path id="path0" d="M108.708 215.550 C 108.337 215.961,107.851 216.298,107.628 216.301 C 107.405 216.303,106.526 216.928,105.675 217.690 C 104.825 218.451,103.231 219.824,102.134 220.741 C 90.399 230.548,93.119 242.253,106.484 239.457 C 117.996 237.048,119.714 233.963,114.922 224.294 C 113.548 221.520,113.325 220.774,113.523 219.602 C 113.943 217.118,110.166 213.940,108.708 215.550 M171.029 215.550 C 170.772 215.961,170.341 216.296,170.071 216.296 C 168.388 216.296,159.742 225.255,158.098 228.704 C 153.967 237.364,162.513 242.856,173.105 238.348 C 173.842 238.034,175.008 237.540,175.698 237.249 C 180.719 235.129,181.107 232.010,177.317 224.215 C 175.748 220.987,175.548 220.336,175.918 219.645 C 176.980 217.661,172.207 213.663,171.029 215.550 M91.111 215.608 C 89.787 215.789,88.149 215.841,87.472 215.724 C 86.763 215.602,86.020 215.695,85.721 215.943 C 85.417 216.194,83.230 216.457,80.471 216.573 C 77.641 216.693,75.631 216.937,75.469 217.183 C 74.956 217.955,75.188 219.815,75.954 221.071 L 76.720 222.328 80.212 222.120 C 84.098 221.888,84.105 221.893,82.982 224.235 C 79.227 232.065,78.894 237.316,82.029 239.254 C 84.639 240.867,86.996 239.040,85.035 236.925 C 83.937 235.740,84.140 234.481,86.131 230.125 C 86.861 228.528,87.977 225.913,88.611 224.313 C 89.976 220.872,89.917 220.905,95.479 220.425 C 101.066 219.943,102.118 218.887,99.519 216.369 C 98.164 215.055,96.356 214.891,91.111 215.608 M207.190 215.885 C 206.561 216.269,205.184 217.768,204.130 219.217 C 201.957 222.205,201.789 222.265,199.788 220.751 C 197.475 219.001,193.412 219.394,185.185 222.163 C 182.579 223.040,182.169 224.517,184.045 226.269 C 185.566 227.690,185.103 229.743,183.341 229.390 C 181.174 228.957,180.161 231.081,181.492 233.265 C 182.092 234.249,182.194 234.852,182.002 236.294 C 181.736 238.299,182.854 240.000,184.437 240.000 C 185.203 240.000,186.135 238.415,185.742 237.780 C 185.638 237.612,185.864 236.750,186.243 235.864 L 186.934 234.254 190.893 233.551 C 195.858 232.669,197.144 231.603,195.552 229.692 C 194.855 228.856,194.750 228.842,192.170 229.242 C 188.950 229.742,188.727 229.567,189.455 227.116 C 190.150 224.777,190.474 224.590,195.176 223.819 C 199.624 223.088,199.482 222.987,198.730 226.364 C 196.731 235.348,196.736 238.638,198.751 239.411 C 200.236 239.981,202.222 238.149,202.222 236.209 C 202.222 235.192,202.671 235.250,204.279 236.477 C 205.169 237.157,207.243 238.232,208.887 238.866 C 215.457 241.399,217.510 241.231,217.689 238.145 C 217.823 235.831,217.659 235.698,213.632 234.857 C 211.306 234.371,209.444 233.729,208.305 233.020 L 206.553 231.930 207.702 231.335 C 208.335 231.008,209.069 230.741,209.333 230.740 C 210.444 230.740,214.391 228.522,215.130 227.485 C 218.124 223.280,211.333 213.359,207.190 215.885 M123.469 222.857 C 117.908 234.353,118.079 233.661,119.915 237.247 C 121.552 240.444,123.916 240.132,124.578 236.631 C 124.742 235.761,126.587 232.222,126.876 232.222 C 126.956 232.222,127.371 232.905,127.797 233.741 C 132.306 242.580,138.370 239.047,140.564 226.300 C 140.896 224.366,141.298 222.616,141.456 222.411 C 142.738 220.748,142.325 217.725,140.749 217.225 C 140.391 217.111,139.800 216.689,139.436 216.287 C 137.869 214.555,136.874 216.155,135.744 222.222 C 134.793 227.328,133.535 230.210,131.866 231.103 C 130.530 231.819,130.336 226.077,131.560 221.998 C 132.315 219.479,131.379 217.767,128.415 216.247 L 127.015 215.529 123.469 222.857 M152.778 219.883 C 151.939 220.072,148.949 221.083,145.926 222.199 C 140.333 224.264,140.970 229.023,146.917 229.615 C 149.752 229.897,152.222 230.814,152.222 231.583 C 152.222 232.895,148.293 235.155,145.378 235.519 L 143.519 235.752 143.549 237.300 C 143.594 239.598,144.201 240.128,146.442 239.830 C 153.012 238.959,157.659 233.165,154.504 229.779 C 154.114 229.360,153.679 228.654,153.538 228.210 C 153.389 227.741,152.595 227.089,151.641 226.655 C 148.774 225.349,150.734 224.444,156.430 224.444 C 161.135 224.444,161.513 224.115,159.793 221.516 C 158.635 219.765,156.009 219.154,152.778 219.883 M229.630 220.027 C 226.403 220.513,221.899 221.736,220.883 222.402 C 219.898 223.047,219.885 223.774,220.811 226.481 C 221.139 227.438,221.005 227.990,219.855 230.446 C 217.893 234.635,218.218 238.353,220.630 239.301 C 224.137 240.678,234.444 238.461,234.444 236.329 C 234.444 235.395,232.406 234.035,231.296 234.229 C 223.712 235.553,222.351 235.365,223.539 233.158 C 224.239 231.858,224.254 231.852,226.793 231.852 C 229.397 231.852,232.963 230.480,232.963 229.478 C 232.963 228.276,230.421 227.037,227.956 227.037 C 224.030 227.037,224.726 226.035,229.445 224.893 C 234.132 223.758,235.705 223.033,235.861 221.933 C 236.136 219.990,234.071 219.358,229.630 220.027 M245.556 219.914 C 245.556 220.606,242.999 222.863,241.978 223.073 C 240.832 223.309,240.809 223.347,236.877 231.759 C 234.659 236.503,234.475 237.755,235.797 239.078 C 237.210 240.490,238.754 239.379,239.794 236.204 C 240.177 235.032,240.630 234.074,240.801 234.074 C 240.972 234.074,241.118 233.782,241.126 233.426 C 241.134 233.064,241.380 233.330,241.683 234.029 L 242.227 235.280 245.187 235.022 C 247.572 234.814,248.148 234.863,248.148 235.271 C 248.148 236.001,247.376 236.667,246.528 236.667 C 245.806 236.667,245.806 236.677,246.547 237.500 C 246.959 237.958,247.400 238.625,247.526 238.981 C 248.469 241.655,252.941 237.881,252.452 234.824 C 252.260 233.623,252.363 233.368,253.339 232.647 C 255.037 231.392,254.239 229.630,251.972 229.630 C 251.016 229.630,250.649 228.607,249.936 223.950 C 249.594 221.714,249.313 220.925,248.727 220.555 C 247.713 219.915,245.556 219.479,245.556 219.914 M256.819 220.555 C 256.698 221.035,256.712 221.781,256.849 222.213 C 256.986 222.645,256.918 223.216,256.697 223.482 C 256.415 223.822,256.406 224.551,256.666 225.923 C 257.127 228.352,257.140 230.184,256.701 231.024 C 255.108 234.077,255.002 238.402,256.490 239.637 C 257.627 240.580,266.242 236.585,268.892 233.885 C 273.177 229.519,268.249 223.205,258.056 220.002 C 257.168 219.722,257.010 219.793,256.819 220.555 M276.759 220.349 C 276.301 220.732,275.926 221.276,275.926 221.559 C 275.926 221.842,275.769 222.232,275.577 222.426 C 275.385 222.619,275.053 223.778,274.840 225.000 C 274.626 226.222,274.200 228.134,273.892 229.247 C 272.617 233.870,273.673 239.353,275.880 239.564 C 277.717 239.740,277.933 239.285,278.014 235.085 C 278.067 232.322,278.313 230.595,278.923 228.704 C 279.753 226.131,279.942 222.883,279.310 222.074 C 279.134 221.850,278.882 221.208,278.748 220.648 C 278.464 219.462,277.921 219.381,276.759 220.349 M288.186 220.439 C 288.003 220.911,286.434 224.242,284.700 227.842 C 281.229 235.046,281.166 235.425,282.949 238.311 C 284.009 240.025,286.296 239.836,286.296 238.034 C 286.296 237.398,288.222 233.704,288.554 233.704 C 288.711 233.704,288.939 234.020,289.062 234.407 C 289.962 237.241,293.103 239.591,294.808 238.704 C 296.702 237.719,299.067 234.059,299.439 231.538 C 299.996 227.767,300.523 225.347,300.975 224.480 C 301.737 223.021,301.614 222.628,299.908 221.068 C 297.546 218.910,297.098 219.449,295.730 226.097 C 294.947 229.902,293.338 232.963,292.122 232.963 C 291.776 232.963,291.975 227.533,292.431 224.532 C 292.727 222.584,292.169 221.625,290.050 220.439 L 288.518 219.582 288.186 220.439 M313.933 219.929 C 313.831 220.094,312.362 221.082,310.670 222.124 C 304.224 226.093,300.450 230.959,301.112 234.448 C 302.153 239.938,305.314 240.801,315.000 238.237 C 325.112 235.561,326.153 232.923,318.669 228.943 L 316.333 227.701 315.253 228.470 C 314.089 229.299,314.036 230.240,315.046 232.185 C 315.653 233.355,315.469 233.480,312.222 234.087 C 310.898 234.335,309.565 234.621,309.259 234.723 C 308.643 234.928,305.084 234.834,304.855 234.607 C 304.003 233.761,310.310 227.981,314.665 225.618 C 316.429 224.661,317.851 223.755,317.825 223.605 C 317.799 223.456,317.778 222.919,317.778 222.412 C 317.778 221.122,314.503 219.007,313.933 219.929 M209.510 222.685 C 211.012 224.353,210.882 224.680,208.306 225.711 C 205.991 226.638,204.815 226.889,204.815 226.457 C 204.815 225.660,207.887 221.852,208.529 221.852 C 208.656 221.852,209.097 222.227,209.510 222.685 M110.059 224.466 C 110.223 224.760,110.859 225.882,111.474 226.961 C 113.236 230.050,112.972 230.930,109.815 232.504 C 106.780 234.016,100.916 234.623,100.001 233.519 C 98.784 232.053,105.710 223.486,107.544 224.190 C 107.812 224.292,108.265 224.227,108.552 224.046 C 109.197 223.638,109.671 223.770,110.059 224.466 M173.588 226.701 C 175.446 230.291,175.327 230.887,172.469 232.312 C 168.292 234.392,162.504 234.722,162.292 232.892 C 162.034 230.652,168.195 223.694,169.954 224.241 C 170.285 224.343,170.806 224.267,171.111 224.071 C 171.956 223.529,171.933 223.505,173.588 226.701 M263.377 225.980 C 264.318 226.385,265.642 227.288,266.320 227.987 L 267.552 229.259 266.829 230.228 C 266.235 231.023,261.128 234.040,260.329 234.067 C 260.205 234.071,260.122 232.449,260.144 230.463 C 260.167 228.477,260.052 226.373,259.889 225.789 C 259.546 224.557,260.142 224.590,263.377 225.980 M246.273 228.573 C 246.761 230.846,246.862 230.709,244.495 230.989 C 242.236 231.256,242.203 231.124,243.899 228.606 C 245.521 226.197,245.763 226.194,246.273 228.573 " stroke="none" fill="#b4c0c1" fill-rule="evenodd"></path><path id="path1" d="M184.390 140.568 L 178.595 144.804 178.902 146.198 C 184.583 172.014,188.649 189.887,188.898 190.145 C 189.082 190.336,189.967 190.004,190.997 189.358 C 191.976 188.744,197.778 185.276,203.889 181.652 C 223.586 169.972,228.700 166.927,228.872 166.782 C 229.188 166.513,227.270 152.199,226.875 151.884 C 226.199 151.344,191.226 136.295,190.692 136.314 C 190.413 136.323,187.577 138.238,184.390 140.568 M198.322 140.680 C 201.614 142.088,201.611 141.916,198.408 145.585 C 196.910 147.300,195.369 149.079,194.982 149.537 C 194.596 149.995,194.025 150.372,193.714 150.373 C 193.055 150.377,180.735 145.097,180.752 144.818 C 180.758 144.714,183.019 143.017,185.777 141.046 L 190.792 137.462 193.266 138.519 C 194.627 139.100,196.902 140.072,198.322 140.680 M209.444 145.502 C 212.673 146.924,214.246 147.807,214.220 148.182 C 213.696 155.673,213.337 158.889,213.025 158.889 C 212.809 158.889,195.483 151.458,195.236 151.259 C 194.564 150.718,202.751 142.689,203.641 143.017 C 204.185 143.218,206.796 144.336,209.444 145.502 M187.284 149.130 C 193.988 152.006,193.559 151.401,192.821 156.932 C 192.501 159.332,192.151 162.046,192.042 162.963 C 191.934 163.880,191.346 168.546,190.736 173.333 C 190.126 178.120,189.521 182.916,189.391 183.991 C 189.261 185.066,189.097 185.887,189.027 185.817 C 188.788 185.578,180.370 147.593,180.370 146.756 C 180.370 146.122,179.882 145.955,187.284 149.130 M223.333 151.488 C 224.454 151.956,225.565 152.521,225.802 152.744 C 226.218 153.133,227.939 164.777,227.626 165.090 C 227.542 165.174,224.583 163.987,221.051 162.453 L 214.630 159.664 214.640 158.258 C 214.655 156.315,215.195 149.990,215.429 149.010 C 215.621 148.208,215.633 148.209,218.459 149.421 C 220.020 150.090,222.213 151.020,223.333 151.488 M203.931 156.346 C 208.695 158.410,212.593 160.172,212.593 160.261 C 212.593 160.405,202.057 173.162,197.973 177.963 C 197.106 178.981,195.021 181.481,193.338 183.519 L 190.279 187.222 190.520 185.185 C 190.653 184.065,191.590 176.472,192.603 168.313 C 193.616 160.154,194.444 153.279,194.444 153.035 C 194.444 152.283,195.012 152.481,203.931 156.346 M220.291 163.397 C 223.696 164.858,226.604 166.156,226.754 166.281 C 226.905 166.406,223.488 168.605,219.162 171.167 C 214.836 173.729,208.130 177.706,204.259 180.004 C 200.389 182.303,196.014 184.901,194.537 185.777 C 193.060 186.654,191.852 187.227,191.852 187.050 C 191.852 186.873,191.977 186.673,192.130 186.605 C 192.282 186.537,193.991 184.565,195.926 182.222 C 197.861 179.880,199.881 177.463,200.415 176.852 C 200.949 176.241,202.834 173.991,204.606 171.852 C 206.377 169.713,208.129 167.609,208.499 167.176 C 208.870 166.744,210.216 165.119,211.491 163.565 C 212.766 162.012,213.875 160.741,213.955 160.741 C 214.036 160.741,216.887 161.936,220.291 163.397 " stroke="none" fill="#3f3ca4" fill-rule="evenodd"></path><path id="path2" d="M162.728 149.704 C 128.927 183.575,132.037 179.698,132.037 187.963 C 132.037 197.330,135.750 201.528,149.434 207.628 L 156.831 210.926 152.859 211.031 C 150.419 211.096,148.586 210.975,148.107 210.719 C 147.544 210.417,147.216 210.414,146.923 210.706 C 146.635 210.995,133.845 211.111,102.519 211.111 C 78.319 211.111,58.519 211.197,58.519 211.301 C 58.519 211.406,61.159 215.263,64.387 219.872 L 70.256 228.251 64.396 236.626 C 61.173 241.232,58.532 245.208,58.527 245.463 C 58.520 245.830,66.650 245.926,97.962 245.926 L 137.406 245.926 139.537 247.577 C 141.202 248.868,149.173 252.589,176.085 264.639 L 210.503 280.050 227.568 262.988 L 244.633 245.926 293.282 245.926 C 333.161 245.926,341.898 245.839,341.745 245.442 C 341.643 245.176,339.403 241.885,336.768 238.127 C 334.132 234.370,331.519 230.603,330.961 229.756 L 329.946 228.215 335.870 219.756 L 341.795 211.296 302.245 211.202 L 262.696 211.108 262.429 205.499 L 262.162 199.890 265.340 196.697 C 269.226 192.794,269.368 193.363,264.033 191.482 L 259.548 189.901 248.938 200.506 L 238.329 211.111 236.295 211.111 L 234.262 211.111 251.205 194.165 L 268.148 177.219 268.148 175.531 C 268.148 173.387,265.428 170.741,263.225 170.741 C 262.807 170.741,262.665 169.241,262.479 162.870 L 262.250 155.000 265.384 151.845 C 267.108 150.109,268.517 148.526,268.514 148.326 C 268.510 147.985,194.726 120.826,192.890 120.489 C 192.175 120.358,187.303 125.077,162.728 149.704 M209.995 144.440 C 219.465 148.547,227.322 152.084,227.456 152.302 C 227.591 152.519,227.819 153.959,227.963 155.503 C 228.108 157.047,228.283 158.648,228.352 159.062 C 229.368 165.129,229.350 167.151,228.277 167.563 C 227.736 167.771,217.269 173.937,206.852 180.186 C 195.136 187.214,189.640 190.370,189.118 190.370 C 188.506 190.370,188.178 189.408,187.229 184.815 C 186.913 183.287,186.404 180.954,186.099 179.630 C 185.793 178.306,184.878 174.222,184.066 170.556 C 183.253 166.889,181.665 159.752,180.537 154.696 C 178.262 144.499,178.263 144.661,180.466 143.098 C 181.330 142.485,183.914 140.630,186.208 138.976 C 190.348 135.990,190.389 135.971,191.579 136.471 C 192.238 136.747,200.526 140.334,209.995 144.440 M185.788 141.314 C 181.350 144.558,181.082 144.823,181.899 145.151 C 182.382 145.345,185.278 146.590,188.333 147.918 L 193.889 150.332 194.630 149.518 C 195.038 149.070,196.371 147.539,197.593 146.115 C 198.815 144.691,200.023 143.304,200.278 143.033 C 200.532 142.762,200.737 142.427,200.732 142.288 C 200.724 142.074,192.738 138.518,191.111 138.005 C 190.798 137.906,188.478 139.348,185.788 141.314 M201.456 144.347 C 196.198 150.141,195.473 151.103,196.168 151.364 C 196.544 151.505,200.424 153.170,204.790 155.063 C 209.157 156.956,212.814 158.420,212.918 158.316 C 213.151 158.084,213.176 157.907,213.475 154.444 C 213.606 152.917,213.811 150.819,213.929 149.783 L 214.144 147.899 208.672 145.524 C 205.662 144.217,203.094 143.103,202.964 143.047 C 202.834 142.992,202.155 143.576,201.456 144.347 M180.537 147.307 C 180.672 147.659,181.270 150.200,181.865 152.955 C 184.149 163.513,188.910 184.589,189.042 184.721 C 189.118 184.797,189.300 183.640,189.448 182.152 C 189.595 180.663,189.765 179.178,189.826 178.853 C 189.886 178.527,190.039 177.360,190.166 176.260 C 190.292 175.160,190.549 173.093,190.736 171.667 C 191.157 168.460,191.429 166.289,191.709 163.889 C 191.828 162.870,192.132 160.501,192.385 158.624 C 192.638 156.747,192.830 154.448,192.811 153.515 L 192.778 151.820 186.852 149.246 C 180.371 146.431,180.178 146.372,180.537 147.307 M215.415 151.204 C 215.290 152.477,215.088 154.685,214.965 156.111 C 214.843 157.537,214.717 158.834,214.686 158.994 C 214.627 159.297,227.109 164.867,227.337 164.639 C 227.525 164.451,226.298 154.390,225.990 153.594 C 225.755 152.984,217.114 148.890,216.062 148.889 C 215.818 148.889,215.547 149.859,215.415 151.204 M194.654 153.796 C 194.557 154.255,194.386 155.546,194.272 156.667 C 194.159 157.787,193.818 160.662,193.515 163.056 C 192.577 170.456,191.832 176.423,191.677 177.778 C 191.596 178.491,191.333 180.542,191.094 182.335 C 190.522 186.616,190.481 186.623,194.479 181.778 C 196.379 179.476,198.107 177.408,198.319 177.182 C 198.530 176.957,201.287 173.642,204.444 169.815 C 207.602 165.989,210.641 162.341,211.198 161.707 C 211.755 161.074,212.210 160.472,212.210 160.370 C 212.209 160.170,195.547 152.953,195.100 152.959 C 194.951 152.961,194.750 153.338,194.654 153.796 M259.199 166.943 L 259.074 173.331 240.185 192.227 L 221.296 211.124 215.370 211.025 L 209.444 210.926 209.326 209.472 L 209.207 208.018 234.140 183.077 C 258.361 158.850,259.078 158.171,259.199 159.346 C 259.268 160.011,259.268 163.430,259.199 166.943 M211.737 163.649 C 210.609 165.045,209.462 166.420,209.188 166.705 C 208.914 166.989,206.703 169.639,204.273 172.593 C 201.843 175.546,199.763 178.046,199.650 178.148 C 199.537 178.250,198.688 179.250,197.764 180.370 C 196.840 181.491,195.265 183.381,194.264 184.571 L 192.444 186.735 194.463 185.534 C 195.573 184.873,198.231 183.299,200.370 182.036 C 225.467 167.213,226.400 166.647,226.137 166.384 C 225.886 166.133,214.368 161.111,214.043 161.111 C 213.902 161.111,212.864 162.253,211.737 163.649 M177.870 195.949 L 206.296 207.943 206.296 209.527 L 206.296 211.111 191.621 211.111 L 176.945 211.111 162.083 204.301 C 153.910 200.555,146.346 197.117,145.275 196.661 C 139.271 194.105,137.653 185.633,142.541 182.339 L 143.745 181.527 146.595 182.741 C 148.162 183.408,162.236 189.352,177.870 195.949 M259.259 207.037 L 259.259 211.111 255.099 211.111 L 250.939 211.111 255.000 207.037 C 257.234 204.796,259.106 202.963,259.160 202.963 C 259.215 202.963,259.259 204.796,259.259 207.037 M99.650 216.176 C 102.408 219.017,101.487 219.924,95.096 220.658 L 90.055 221.237 88.877 224.229 C 88.230 225.875,87.317 228.056,86.849 229.074 C 84.315 234.589,83.999 236.012,85.149 236.730 C 86.749 237.729,85.926 240.000,83.965 240.000 C 78.912 240.000,78.361 233.643,82.631 224.630 L 83.684 222.407 80.135 222.301 C 76.233 222.184,75.916 222.028,75.206 219.878 C 74.242 216.957,74.508 216.779,80.271 216.470 C 84.306 216.254,85.453 216.073,85.806 215.599 C 86.179 215.097,86.376 215.076,87.019 215.469 C 87.441 215.727,88.160 215.844,88.616 215.730 C 93.135 214.596,98.319 214.805,99.650 216.176 M112.425 216.559 C 113.711 217.882,114.062 218.485,113.880 219.059 C 113.447 220.423,113.648 221.208,115.303 224.606 C 119.468 233.158,118.579 235.748,110.501 238.589 C 95.741 243.780,88.733 233.735,99.623 222.998 C 102.852 219.815,106.895 216.296,107.324 216.296 C 107.511 216.296,107.965 215.963,108.333 215.556 C 109.417 214.358,110.558 214.638,112.425 216.559 M173.877 215.282 C 173.899 215.330,174.465 216.014,175.133 216.801 C 176.197 218.055,176.318 218.408,176.108 219.649 C 175.904 220.856,176.114 221.553,177.516 224.330 C 181.145 231.513,181.071 234.030,177.158 236.671 C 176.256 237.280,175.344 237.778,175.130 237.778 C 174.916 237.778,174.216 238.011,173.574 238.297 C 161.148 243.822,152.448 236.461,159.273 226.196 C 160.055 225.021,160.502 224.178,160.266 224.324 C 160.030 224.470,158.082 224.614,155.937 224.645 C 153.792 224.675,151.555 224.898,150.965 225.139 L 149.894 225.578 151.729 226.523 C 152.822 227.086,153.739 227.869,153.996 228.457 C 154.233 229.000,154.779 230.065,155.208 230.824 C 157.200 234.343,151.547 240.000,146.040 240.000 C 143.781 240.000,143.333 239.567,143.333 237.385 L 143.333 235.659 145.160 235.442 C 147.802 235.130,152.222 232.632,152.222 231.452 C 152.222 230.955,149.433 230.093,147.005 229.839 C 142.883 229.408,141.460 227.933,142.283 224.950 C 142.940 222.570,150.387 219.630,155.758 219.630 L 158.847 219.630 160.012 221.577 L 161.177 223.525 162.903 221.916 C 163.853 221.032,165.213 219.864,165.926 219.321 C 166.639 218.778,167.634 217.875,168.138 217.315 C 168.642 216.755,169.241 216.296,169.470 216.296 C 169.699 216.296,170.286 215.950,170.773 215.527 C 171.520 214.880,173.610 214.714,173.877 215.282 M210.498 215.632 C 214.473 218.411,217.040 223.799,215.802 226.762 C 215.140 228.348,213.376 229.551,210.014 230.710 C 208.698 231.163,207.477 231.624,207.301 231.733 C 206.521 232.214,209.910 233.809,213.352 234.581 C 217.587 235.531,217.840 235.706,217.987 237.780 C 218.287 241.992,210.118 241.197,203.818 236.401 L 202.636 235.501 202.235 236.991 C 201.978 237.946,201.426 238.772,200.699 239.289 L 199.565 240.096 198.579 239.363 C 198.036 238.959,197.535 238.229,197.465 237.741 C 197.394 237.252,197.211 236.685,197.057 236.481 C 196.783 236.118,197.603 230.650,198.634 225.969 L 199.154 223.605 196.707 223.827 C 191.172 224.330,190.189 224.907,189.243 228.204 L 188.925 229.312 192.178 229.058 L 195.430 228.803 195.894 229.923 C 196.444 231.251,195.655 232.850,194.306 233.143 C 193.506 233.316,189.941 234.000,188.017 234.348 C 186.881 234.554,185.926 236.187,185.926 237.921 C 185.926 239.526,185.547 240.000,184.262 240.000 C 182.507 240.000,181.717 238.665,181.933 236.062 C 182.065 234.468,181.964 233.955,181.419 233.462 C 179.647 231.858,181.784 227.820,183.605 229.331 C 183.940 229.609,184.162 229.447,184.438 228.720 C 184.948 227.379,184.945 227.371,183.693 226.142 C 182.624 225.093,182.320 223.959,182.876 223.096 C 183.310 222.422,191.379 220.000,194.704 219.545 L 197.742 219.129 199.668 220.478 C 201.880 222.026,201.778 222.051,203.674 219.485 C 205.472 217.050,207.159 215.441,208.240 215.130 C 208.699 214.997,209.132 214.872,209.202 214.852 C 209.272 214.831,209.856 215.182,210.498 215.632 M139.562 216.111 C 140.167 216.620,140.811 217.037,140.992 217.037 C 142.201 217.037,142.874 220.007,142.032 221.622 C 141.384 222.865,140.373 227.005,140.365 228.449 C 140.342 232.671,136.048 238.889,133.156 238.889 C 131.585 238.889,128.506 236.133,127.568 233.887 C 127.270 233.175,126.960 232.593,126.879 232.593 C 126.554 232.593,124.862 235.980,124.618 237.120 C 124.079 239.635,121.734 240.480,120.476 238.611 C 117.850 234.710,117.985 233.731,122.410 224.630 C 124.390 220.556,126.154 216.847,126.330 216.389 C 126.720 215.368,127.044 215.355,128.869 216.286 C 131.724 217.743,132.640 219.796,131.714 222.663 C 131.064 224.677,130.861 231.111,131.449 231.111 C 132.665 231.111,134.911 226.530,135.359 223.134 C 135.706 220.498,137.479 215.185,138.011 215.185 C 138.259 215.185,138.957 215.602,139.562 216.111 M235.451 220.337 C 237.067 221.495,236.052 223.360,233.447 224.017 C 232.672 224.213,231.287 224.565,230.370 224.800 C 229.454 225.035,228.072 225.363,227.300 225.529 C 224.324 226.171,225.116 227.222,228.327 226.893 C 230.585 226.662,230.653 226.682,232.017 227.968 C 234.163 229.992,231.739 231.915,226.873 232.050 C 224.358 232.120,224.287 232.149,223.627 233.376 L 222.952 234.630 224.639 234.743 C 225.567 234.806,227.674 234.602,229.322 234.292 C 232.609 233.672,234.330 234.282,234.453 236.111 C 234.489 236.646,234.558 236.697,234.702 236.296 C 234.812 235.991,235.485 234.491,236.198 232.963 C 236.910 231.435,237.736 229.602,238.032 228.889 C 239.802 224.631,240.913 222.967,242.140 222.735 C 242.963 222.580,243.775 221.993,244.661 220.912 L 245.967 219.318 247.639 219.888 C 249.358 220.473,250.000 221.355,250.000 223.127 C 250.000 225.755,251.187 229.259,252.077 229.259 C 252.564 229.259,252.963 229.386,252.963 229.542 C 252.963 229.697,253.327 229.989,253.772 230.190 C 254.980 230.736,254.968 231.274,253.719 232.453 C 252.803 233.317,252.593 233.814,252.593 235.110 C 252.593 237.196,251.841 238.579,250.239 239.442 C 248.866 240.181,247.037 239.833,247.037 238.833 C 247.037 238.590,246.745 238.063,246.389 237.660 C 245.869 237.073,245.841 236.894,246.250 236.751 C 246.530 236.654,247.112 236.222,247.542 235.791 C 248.519 234.814,247.709 234.508,245.854 235.155 C 243.678 235.913,242.375 235.680,241.767 234.425 L 241.219 233.294 240.424 235.141 C 239.987 236.158,239.630 237.243,239.630 237.554 C 239.630 240.332,235.657 240.393,234.675 237.630 C 234.435 236.953,234.393 236.956,233.568 237.731 C 232.122 239.090,225.320 240.326,222.016 239.831 C 218.149 239.251,217.208 235.703,219.575 230.627 C 220.991 227.591,221.027 227.420,220.539 226.051 C 219.364 222.756,219.718 222.234,223.902 221.079 C 230.158 219.351,233.754 219.120,235.451 220.337 M299.358 220.253 C 301.433 221.691,301.933 222.821,301.217 224.452 C 300.529 226.020,299.662 229.778,299.638 231.296 C 299.594 234.029,295.782 239.259,293.834 239.259 C 292.747 239.259,289.892 236.714,289.255 235.176 C 289.004 234.570,288.690 234.074,288.558 234.074 C 288.336 234.074,286.891 236.516,286.822 237.008 C 286.323 240.543,283.908 240.710,282.183 237.330 C 281.111 235.229,281.274 234.504,284.195 228.425 C 285.687 225.319,287.219 222.069,287.599 221.204 C 288.378 219.431,288.466 219.397,290.111 220.229 C 292.739 221.559,293.384 223.158,292.407 225.926 C 291.822 227.584,291.635 232.593,292.158 232.593 C 293.415 232.593,295.306 228.619,295.752 225.040 C 295.902 223.840,296.251 222.423,296.528 221.892 C 296.806 221.361,297.034 220.662,297.035 220.340 C 297.040 219.010,297.536 218.991,299.358 220.253 M261.014 220.964 C 271.325 225.205,273.737 231.879,266.493 236.124 C 256.852 241.774,253.758 240.765,255.972 232.694 C 256.625 230.316,256.718 229.269,256.515 226.579 C 256.356 224.477,256.402 223.333,256.644 223.333 C 256.882 223.333,256.900 223.022,256.695 222.481 C 255.596 219.591,256.718 219.197,261.014 220.964 M279.494 222.279 L 280.315 224.743 279.356 227.649 C 278.610 229.911,278.375 231.447,278.295 234.576 C 278.177 239.186,277.735 240.119,275.760 239.925 C 273.217 239.677,272.447 233.155,274.226 226.931 C 274.530 225.869,274.977 224.200,275.220 223.223 C 276.289 218.924,278.234 218.494,279.494 222.279 M316.674 220.560 C 319.417 222.292,318.919 223.641,314.739 225.800 C 311.191 227.633,305.185 232.929,305.185 234.226 C 305.185 234.904,307.987 235.059,309.852 234.484 C 310.443 234.302,311.868 233.960,313.020 233.724 C 315.006 233.318,315.511 232.795,314.702 231.986 C 314.560 231.844,314.444 231.340,314.444 230.864 C 314.444 230.389,314.269 230.000,314.056 230.000 C 313.434 230.000,314.198 228.917,315.356 228.158 C 316.920 227.131,324.074 231.343,324.074 233.291 C 324.074 235.431,318.836 237.788,310.064 239.594 C 304.434 240.753,301.507 239.036,300.905 234.220 C 300.466 230.705,304.653 225.443,310.788 221.798 C 312.195 220.962,313.437 220.132,313.547 219.954 C 313.909 219.368,315.175 219.614,316.674 220.560 M207.019 223.400 C 204.536 226.302,204.642 226.760,207.566 225.766 C 210.519 224.762,210.617 224.672,209.998 223.514 C 209.067 221.775,208.431 221.750,207.019 223.400 M108.704 224.094 C 108.296 224.258,107.546 224.487,107.037 224.603 C 104.917 225.085,100.000 230.844,100.000 232.843 C 100.000 234.753,105.642 234.306,110.444 232.016 C 112.687 230.946,112.789 230.114,111.083 226.798 C 109.344 223.417,109.617 223.726,108.704 224.094 M170.106 224.401 C 166.561 225.083,160.839 232.567,162.984 233.715 C 165.272 234.939,173.980 232.419,174.639 230.341 C 174.897 229.527,172.281 224.044,171.672 224.123 C 171.465 224.150,170.761 224.275,170.106 224.401 M260.185 229.322 C 260.185 231.731,260.315 233.703,260.474 233.703 C 261.796 233.706,267.037 230.312,267.037 229.453 C 267.037 228.609,264.541 226.649,262.393 225.808 L 260.185 224.942 260.185 229.322 M244.092 228.678 C 242.654 230.768,242.646 230.741,244.678 230.741 L 246.393 230.741 246.164 229.352 C 246.037 228.588,245.932 227.755,245.930 227.500 C 245.922 226.599,245.207 227.057,244.092 228.678 M197.755 249.435 C 202.306 251.365,206.067 252.990,206.112 253.046 C 206.502 253.534,206.586 269.677,206.198 269.521 C 205.946 269.421,194.741 264.301,181.296 258.143 C 167.852 251.986,156.352 246.725,155.741 246.452 C 154.792 246.027,157.171 245.953,172.055 245.940 L 189.480 245.926 197.755 249.435 M220.553 256.671 L 209.815 267.415 209.571 260.097 L 209.327 252.778 212.712 249.352 L 216.096 245.926 223.694 245.926 L 231.292 245.926 220.553 256.671 " stroke="none" fill="#db342c" fill-rule="evenodd"></path><path id="path3" d="M96.019 215.070 C 96.375 215.163,96.958 215.163,97.315 215.070 C 97.671 214.977,97.380 214.901,96.667 214.901 C 95.954 214.901,95.662 214.977,96.019 215.070 M91.574 215.440 C 91.931 215.534,92.514 215.534,92.870 215.440 C 93.227 215.347,92.935 215.271,92.222 215.271 C 91.509 215.271,91.218 215.347,91.574 215.440 M98.519 215.301 C 98.519 215.365,99.060 215.906,99.722 216.505 L 100.926 217.593 99.838 216.389 C 98.824 215.267,98.519 215.015,98.519 215.301 M80.648 216.558 C 81.106 216.646,81.856 216.646,82.315 216.558 C 82.773 216.469,82.398 216.397,81.481 216.397 C 80.565 216.397,80.190 216.469,80.648 216.558 M75.046 217.237 C 74.919 217.568,74.832 218.200,74.853 218.641 C 74.877 219.149,75.002 218.969,75.195 218.151 C 75.518 216.774,75.430 216.234,75.046 217.237 M163.519 221.367 C 162.192 222.605,161.894 222.986,162.778 222.313 C 164.175 221.249,166.240 219.239,165.898 219.276 C 165.811 219.286,164.741 220.227,163.519 221.367 M195.833 219.521 C 196.292 219.609,197.042 219.609,197.500 219.521 C 197.958 219.432,197.583 219.360,196.667 219.360 C 195.750 219.360,195.375 219.432,195.833 219.521 M298.652 219.916 C 298.945 220.390,301.111 221.993,301.111 221.736 C 301.111 221.644,300.499 221.103,299.751 220.532 C 299.004 219.962,298.509 219.684,298.652 219.916 M131.895 220.803 C 131.871 221.143,131.756 221.726,131.639 222.099 C 131.437 222.742,131.448 222.743,131.849 222.118 C 132.082 221.755,132.197 221.172,132.105 220.822 C 131.954 220.248,131.934 220.246,131.895 220.803 M91.204 220.996 C 91.560 221.089,92.144 221.089,92.500 220.996 C 92.856 220.903,92.565 220.827,91.852 220.827 C 91.139 220.827,90.847 220.903,91.204 220.996 M317.279 221.111 C 317.514 221.417,317.783 222.083,317.877 222.593 L 318.047 223.519 318.098 222.545 C 318.126 222.009,317.857 221.344,317.500 221.064 C 316.936 220.622,316.907 220.628,317.279 221.111 M292.563 223.611 C 292.740 224.890,292.766 224.915,292.888 223.936 C 292.961 223.351,292.875 222.727,292.696 222.548 C 292.510 222.362,292.453 222.815,292.563 223.611 M160.784 223.633 C 160.760 224.103,160.616 224.416,160.463 224.327 C 160.310 224.239,159.852 224.301,159.444 224.465 C 158.787 224.729,158.779 224.766,159.374 224.789 C 159.797 224.805,159.949 224.985,159.786 225.278 C 159.644 225.532,159.900 225.387,160.355 224.954 C 160.850 224.483,161.111 223.887,161.005 223.472 C 160.859 222.906,160.819 222.935,160.784 223.633 M130.972 223.903 C 130.845 224.234,130.770 225.950,130.807 227.715 L 130.873 230.926 131.090 227.222 C 131.326 223.210,131.319 222.999,130.972 223.903 M182.593 224.237 C 182.593 224.735,182.729 225.226,182.896 225.329 C 183.063 225.432,183.127 225.025,183.039 224.425 C 182.845 223.101,182.593 222.995,182.593 224.237 M197.500 223.589 C 197.856 223.682,198.440 223.682,198.796 223.589 C 199.153 223.495,198.861 223.419,198.148 223.419 C 197.435 223.419,197.144 223.495,197.500 223.589 M267.963 225.556 C 268.759 226.370,269.493 227.037,269.595 227.037 C 269.697 227.037,269.129 226.370,268.333 225.556 C 267.538 224.741,266.803 224.074,266.702 224.074 C 266.600 224.074,267.167 224.741,267.963 225.556 M166.088 226.759 L 165.000 227.963 166.204 226.875 C 167.326 225.861,167.578 225.556,167.292 225.556 C 167.228 225.556,166.686 226.097,166.088 226.759 M214.814 227.870 C 214.268 228.615,214.179 228.874,214.579 228.549 C 215.186 228.056,216.105 226.667,215.823 226.667 C 215.753 226.667,215.298 227.208,214.814 227.870 M229.630 226.935 C 230.139 227.027,230.959 227.462,231.452 227.903 L 232.348 228.704 231.637 227.697 C 231.116 226.959,230.629 226.700,229.815 226.729 C 228.817 226.764,228.798 226.785,229.630 226.935 M265.949 227.991 C 266.649 228.822,267.297 229.441,267.389 229.368 C 267.481 229.295,266.908 228.615,266.116 227.858 L 264.676 226.481 265.949 227.991 M256.661 228.964 C 256.562 230.126,256.617 230.941,256.782 230.775 C 256.947 230.609,257.027 229.659,256.961 228.663 L 256.840 226.852 256.661 228.964 M140.086 228.889 C 140.086 229.602,140.162 229.894,140.255 229.537 C 140.348 229.181,140.348 228.597,140.255 228.241 C 140.162 227.884,140.086 228.176,140.086 228.889 M308.128 230.278 L 306.852 231.667 308.241 230.390 C 309.005 229.688,309.630 229.063,309.630 229.001 C 309.630 228.719,309.316 228.985,308.128 230.278 M147.319 229.892 C 147.780 229.980,148.447 229.977,148.801 229.884 C 149.155 229.791,148.778 229.719,147.963 229.723 C 147.148 229.727,146.858 229.803,147.319 229.892 M321.111 230.116 C 321.111 230.180,321.653 230.721,322.315 231.320 L 323.519 232.407 322.431 231.204 C 321.417 230.082,321.111 229.830,321.111 230.116 M242.593 230.815 C 242.593 230.978,243.176 231.111,243.889 231.111 C 244.602 231.111,245.185 231.046,245.185 230.966 C 245.185 230.887,244.602 230.754,243.889 230.670 C 243.176 230.587,242.593 230.652,242.593 230.815 M292.850 232.049 C 292.278 232.552,291.957 232.963,292.137 232.963 C 292.317 232.963,292.855 232.546,293.333 232.037 C 294.440 230.859,294.196 230.865,292.850 232.049 M156.768 233.333 C 156.768 234.250,156.840 234.625,156.928 234.167 C 157.016 233.708,157.016 232.958,156.928 232.500 C 156.840 232.042,156.768 232.417,156.768 233.333 M225.648 232.107 C 226.005 232.200,226.588 232.200,226.944 232.107 C 227.301 232.014,227.009 231.938,226.296 231.938 C 225.583 231.938,225.292 232.014,225.648 232.107 M268.499 234.352 L 267.222 235.741 268.611 234.464 C 269.904 233.276,270.170 232.963,269.887 232.963 C 269.826 232.963,269.201 233.588,268.499 234.352 M127.407 233.601 C 127.407 233.816,127.751 234.385,128.170 234.866 L 128.933 235.741 128.282 234.630 C 127.426 233.167,127.407 233.145,127.407 233.601 M218.234 234.444 C 218.234 235.157,218.310 235.449,218.403 235.093 C 218.497 234.736,218.497 234.153,218.403 233.796 C 218.310 233.440,218.234 233.731,218.234 234.444 M277.879 234.815 C 277.879 235.731,277.951 236.106,278.039 235.648 C 278.127 235.190,278.127 234.440,278.039 233.981 C 277.951 233.523,277.879 233.898,277.879 234.815 M231.852 233.966 C 232.157 234.079,232.741 234.441,233.148 234.771 C 233.883 235.365,233.883 235.363,233.183 234.537 C 232.795 234.079,232.212 233.717,231.887 233.733 C 231.386 233.758,231.380 233.793,231.852 233.966 M186.893 234.377 C 186.790 234.544,187.197 234.609,187.797 234.521 C 188.398 234.432,188.889 234.296,188.889 234.217 C 188.889 233.935,187.077 234.080,186.893 234.377 M223.986 235.077 C 224.447 235.165,225.113 235.162,225.467 235.069 C 225.821 234.977,225.444 234.904,224.630 234.908 C 223.815 234.912,223.525 234.988,223.986 235.077 M242.870 235.447 C 243.329 235.535,244.079 235.535,244.537 235.447 C 244.995 235.358,244.620 235.286,243.704 235.286 C 242.787 235.286,242.412 235.358,242.870 235.447 M128.889 236.042 C 128.889 236.106,129.431 236.647,130.093 237.246 L 131.296 238.333 130.208 237.130 C 129.194 236.008,128.889 235.756,128.889 236.042 M234.685 237.778 C 234.990 238.389,235.302 238.889,235.378 238.889 C 235.455 238.889,235.343 238.389,235.130 237.778 C 234.917 237.167,234.605 236.667,234.437 236.667 C 234.268 236.667,234.380 237.167,234.685 237.778 M246.389 237.622 C 246.745 238.045,247.037 238.577,247.037 238.804 C 247.037 239.030,247.188 239.309,247.373 239.423 C 248.043 239.837,247.313 238.179,246.537 237.524 C 245.748 236.858,245.746 236.859,246.389 237.622 M227.130 239.515 C 227.486 239.608,228.069 239.608,228.426 239.515 C 228.782 239.421,228.491 239.345,227.778 239.345 C 227.065 239.345,226.773 239.421,227.130 239.515 M274.770 239.733 C 274.949 239.912,275.574 239.998,276.159 239.925 C 277.138 239.803,277.112 239.777,275.834 239.600 C 275.037 239.490,274.584 239.547,274.770 239.733 M100.093 239.895 C 100.653 239.980,101.569 239.980,102.130 239.895 C 102.690 239.810,102.231 239.741,101.111 239.741 C 99.991 239.741,99.532 239.810,100.093 239.895 M162.690 239.895 C 163.253 239.981,164.087 239.978,164.542 239.890 C 164.998 239.802,164.537 239.733,163.519 239.736 C 162.500 239.738,162.127 239.810,162.690 239.895 M222.685 239.895 C 223.245 239.980,224.162 239.980,224.722 239.895 C 225.282 239.810,224.824 239.741,223.704 239.741 C 222.583 239.741,222.125 239.810,222.685 239.895 M305.840 239.898 C 306.506 239.980,307.506 239.979,308.062 239.894 C 308.619 239.810,308.074 239.742,306.852 239.744 C 305.630 239.746,305.174 239.816,305.840 239.898 " stroke="none" fill="#c96764" fill-rule="evenodd"></path><path id="path4" d="M187.222 138.178 C 185.025 139.839,184.729 140.308,186.790 138.863 C 188.346 137.772,189.193 137.014,188.818 137.047 C 188.755 137.053,188.037 137.562,187.222 138.178 M189.074 138.736 L 187.963 139.691 189.167 138.894 C 189.829 138.456,190.370 138.026,190.370 137.938 C 190.370 137.661,190.214 137.757,189.074 138.736 M192.954 138.682 C 193.459 138.962,195.418 139.831,197.308 140.614 C 199.605 141.565,200.683 142.197,200.561 142.519 C 200.459 142.789,200.549 142.896,200.765 142.763 C 201.559 142.272,200.796 141.750,196.680 139.973 C 192.459 138.152,191.220 137.722,192.954 138.682 M183.519 140.958 L 182.407 141.913 183.611 141.116 C 184.273 140.678,184.815 140.248,184.815 140.160 C 184.815 139.883,184.658 139.979,183.519 140.958 M182.407 143.551 L 181.296 144.506 182.500 143.709 C 183.162 143.271,183.704 142.841,183.704 142.753 C 183.704 142.475,183.547 142.572,182.407 143.551 M201.643 143.796 L 200.556 145.000 201.759 143.912 C 202.421 143.314,202.963 142.772,202.963 142.708 C 202.963 142.422,202.657 142.674,201.643 143.796 M203.396 143.149 C 203.499 143.252,205.893 144.337,208.717 145.561 C 211.540 146.785,213.997 147.993,214.176 148.245 C 214.414 148.581,214.461 148.555,214.352 148.148 C 214.269 147.843,211.882 146.565,209.046 145.308 C 204.263 143.189,202.925 142.678,203.396 143.149 M198.724 144.749 L 197.632 146.111 199.001 144.835 C 200.416 143.516,200.565 143.315,200.093 143.360 C 199.940 143.375,199.324 144.000,198.724 144.749 M180.741 144.784 C 180.741 145.058,184.501 146.734,184.690 146.545 C 184.753 146.482,183.890 146.003,182.772 145.480 C 181.655 144.957,180.741 144.644,180.741 144.784 M198.680 147.130 L 197.593 148.333 198.796 147.246 C 199.458 146.647,200.000 146.106,200.000 146.042 C 200.000 145.756,199.694 146.008,198.680 147.130 M196.458 147.500 L 195.370 148.704 196.574 147.616 C 197.236 147.018,197.778 146.476,197.778 146.412 C 197.778 146.126,197.472 146.378,196.458 147.500 M185.241 146.846 C 185.568 147.173,193.064 150.371,193.479 150.360 C 193.856 150.350,185.636 146.667,185.238 146.667 C 185.141 146.667,185.142 146.747,185.241 146.846 M182.963 147.593 C 183.472 147.884,184.056 148.122,184.259 148.122 C 184.463 148.122,184.213 147.884,183.704 147.593 C 183.194 147.301,182.611 147.063,182.407 147.063 C 182.204 147.063,182.454 147.301,182.963 147.593 M185.556 148.704 C 186.065 148.995,186.648 149.233,186.852 149.233 C 187.056 149.233,186.806 148.995,186.296 148.704 C 185.787 148.413,185.204 148.174,185.000 148.174 C 184.796 148.174,185.046 148.413,185.556 148.704 M196.369 149.740 C 195.110 151.039,194.919 151.481,195.617 151.481 C 195.855 151.481,195.935 151.367,195.796 151.228 C 195.657 151.089,196.078 150.422,196.733 149.747 C 197.387 149.071,197.840 148.519,197.738 148.519 C 197.636 148.519,197.020 149.068,196.369 149.740 M217.037 148.987 C 217.037 149.085,218.912 149.963,221.204 150.938 C 223.495 151.914,225.579 152.967,225.833 153.279 C 226.088 153.590,226.296 153.667,226.296 153.449 C 226.296 152.840,225.664 152.474,221.667 150.766 C 216.874 148.718,217.037 148.781,217.037 148.987 M188.148 149.815 C 188.657 150.106,189.241 150.344,189.444 150.344 C 189.648 150.344,189.398 150.106,188.889 149.815 C 188.380 149.524,187.796 149.286,187.593 149.286 C 187.389 149.286,187.639 149.524,188.148 149.815 M215.271 150.370 C 215.271 151.083,215.347 151.375,215.440 151.019 C 215.534 150.662,215.534 150.079,215.440 149.722 C 215.347 149.366,215.271 149.657,215.271 150.370 M213.790 151.111 C 213.790 151.824,213.866 152.116,213.959 151.759 C 214.052 151.403,214.052 150.819,213.959 150.463 C 213.866 150.106,213.790 150.398,213.790 151.111 M190.741 150.926 C 191.250 151.217,191.833 151.455,192.037 151.455 C 192.241 151.455,191.991 151.217,191.481 150.926 C 190.972 150.635,190.389 150.397,190.185 150.397 C 189.981 150.397,190.231 150.635,190.741 150.926 M192.945 153.065 C 193.125 154.591,193.133 154.599,193.258 153.379 C 193.329 152.691,193.246 151.987,193.074 151.814 C 192.901 151.642,192.843 152.205,192.945 153.065 M196.333 151.613 C 196.657 151.979,209.363 157.427,209.521 157.269 C 209.595 157.195,206.858 155.929,203.439 154.456 C 196.340 151.397,196.031 151.273,196.333 151.613 M227.501 153.889 C 227.505 154.704,227.581 154.993,227.669 154.533 C 227.758 154.072,227.755 153.405,227.662 153.051 C 227.569 152.697,227.497 153.074,227.501 153.889 M196.667 153.519 C 197.176 153.810,197.759 154.048,197.963 154.048 C 198.167 154.048,197.917 153.810,197.407 153.519 C 196.898 153.227,196.315 152.989,196.111 152.989 C 195.907 152.989,196.157 153.227,196.667 153.519 M214.901 154.074 C 214.901 154.787,214.977 155.079,215.070 154.722 C 215.163 154.366,215.163 153.782,215.070 153.426 C 214.977 153.069,214.901 153.361,214.901 154.074 M199.259 154.630 C 199.769 154.921,200.352 155.159,200.556 155.159 C 200.759 155.159,200.509 154.921,200.000 154.630 C 199.491 154.339,198.907 154.100,198.704 154.100 C 198.500 154.100,198.750 154.339,199.259 154.630 M213.419 155.556 C 213.419 156.269,213.495 156.560,213.589 156.204 C 213.682 155.847,213.682 155.264,213.589 154.907 C 213.495 154.551,213.419 154.843,213.419 155.556 M201.852 155.741 C 202.361 156.032,202.944 156.270,203.148 156.270 C 203.352 156.270,203.102 156.032,202.593 155.741 C 202.083 155.450,201.500 155.211,201.296 155.211 C 201.093 155.211,201.343 155.450,201.852 155.741 M227.864 156.667 C 227.864 157.380,227.940 157.671,228.033 157.315 C 228.126 156.958,228.126 156.375,228.033 156.019 C 227.940 155.662,227.864 155.954,227.864 156.667 M211.111 158.148 C 212.580 158.952,213.333 159.071,213.333 158.497 C 213.333 158.281,213.172 158.204,212.974 158.327 C 212.776 158.449,212.118 158.292,211.511 157.978 C 209.920 157.155,209.570 157.304,211.111 158.148 M193.790 158.889 C 193.790 159.602,193.866 159.894,193.959 159.537 C 194.052 159.181,194.052 158.597,193.959 158.241 C 193.866 157.884,193.790 158.176,193.790 158.889 M207.778 158.333 C 208.287 158.624,208.870 158.863,209.074 158.863 C 209.278 158.863,209.028 158.624,208.519 158.333 C 208.009 158.042,207.426 157.804,207.222 157.804 C 207.019 157.804,207.269 158.042,207.778 158.333 M210.370 159.444 C 210.880 159.736,211.463 159.974,211.667 159.974 C 211.870 159.974,211.620 159.736,211.111 159.444 C 210.602 159.153,210.019 158.915,209.815 158.915 C 209.611 158.915,209.861 159.153,210.370 159.444 M214.537 159.467 C 214.927 159.869,220.465 162.251,220.629 162.087 C 220.750 161.966,219.182 161.235,215.556 159.722 C 214.843 159.425,214.384 159.310,214.537 159.467 M193.419 161.852 C 193.419 162.565,193.495 162.856,193.589 162.500 C 193.682 162.144,193.682 161.560,193.589 161.204 C 193.495 160.847,193.419 161.139,193.419 161.852 M215.556 161.667 C 216.065 161.958,216.648 162.196,216.852 162.196 C 217.056 162.196,216.806 161.958,216.296 161.667 C 215.787 161.376,215.204 161.137,215.000 161.137 C 214.796 161.137,215.046 161.376,215.556 161.667 M228.604 162.593 C 228.604 163.306,228.681 163.597,228.774 163.241 C 228.867 162.884,228.867 162.301,228.774 161.944 C 228.681 161.588,228.604 161.880,228.604 162.593 M208.784 164.470 C 206.488 167.317,206.784 167.301,209.259 164.444 C 210.318 163.222,211.043 162.234,210.870 162.248 C 210.697 162.262,209.758 163.262,208.784 164.470 M223.519 163.495 C 227.443 165.330,227.783 165.401,227.752 164.377 C 227.731 163.696,227.674 163.648,227.474 164.146 C 227.248 164.708,226.916 164.641,224.290 163.498 C 220.592 161.889,220.078 161.887,223.519 163.495 M218.889 163.148 C 219.398 163.439,219.981 163.677,220.185 163.677 C 220.389 163.677,220.139 163.439,219.630 163.148 C 219.120 162.857,218.537 162.619,218.333 162.619 C 218.130 162.619,218.380 162.857,218.889 163.148 M221.481 164.259 C 221.991 164.550,222.574 164.789,222.778 164.789 C 222.981 164.789,222.731 164.550,222.222 164.259 C 221.713 163.968,221.130 163.730,220.926 163.730 C 220.722 163.730,220.972 163.968,221.481 164.259 M228.975 165.556 C 228.975 166.269,229.051 166.560,229.144 166.204 C 229.237 165.847,229.237 165.264,229.144 164.907 C 229.051 164.551,228.975 164.843,228.975 165.556 M224.074 165.370 C 224.583 165.661,225.167 165.900,225.370 165.900 C 225.574 165.900,225.324 165.661,224.815 165.370 C 224.306 165.079,223.722 164.841,223.519 164.841 C 223.315 164.841,223.565 165.079,224.074 165.370 M226.019 166.270 C 226.069 166.459,225.778 166.888,225.370 167.222 C 224.755 167.728,224.830 167.721,225.813 167.181 C 226.464 166.823,226.913 166.395,226.810 166.228 C 226.552 165.812,225.904 165.846,226.019 166.270 M192.679 168.148 C 192.679 168.861,192.755 169.153,192.848 168.796 C 192.941 168.440,192.941 167.856,192.848 167.500 C 192.755 167.144,192.679 167.435,192.679 168.148 M191.938 173.704 C 191.938 174.417,192.014 174.708,192.107 174.352 C 192.200 173.995,192.200 173.412,192.107 173.056 C 192.014 172.699,191.938 172.991,191.938 173.704 M190.456 174.074 C 190.456 174.787,190.533 175.079,190.626 174.722 C 190.719 174.366,190.719 173.782,190.626 173.426 C 190.533 173.069,190.456 173.361,190.456 174.074 M200.707 174.352 C 199.120 176.121,198.398 177.037,198.588 177.037 C 198.690 177.037,199.476 176.204,200.334 175.185 C 201.986 173.227,202.254 172.626,200.707 174.352 M207.685 177.619 C 206.301 178.370,206.385 178.683,207.778 177.963 C 208.389 177.647,208.889 177.309,208.889 177.213 C 208.889 176.974,208.849 176.988,207.685 177.619 M208.981 178.561 C 207.719 179.370,207.311 179.913,208.426 179.299 C 209.276 178.832,210.607 177.803,210.370 177.796 C 210.269 177.793,209.644 178.137,208.981 178.561 M191.197 180.000 C 191.197 180.713,191.273 181.005,191.366 180.648 C 191.460 180.292,191.460 179.708,191.366 179.352 C 191.273 178.995,191.197 179.287,191.197 180.000 M203.426 181.894 C 202.164 182.703,201.755 183.246,202.870 182.633 C 203.720 182.166,205.051 181.136,204.815 181.129 C 204.713 181.126,204.088 181.470,203.426 181.894 M196.759 184.117 C 195.497 184.925,195.088 185.468,196.204 184.855 C 197.053 184.388,198.385 183.358,198.148 183.351 C 198.046 183.348,197.421 183.693,196.759 184.117 M188.571 184.074 C 188.571 184.380,188.714 184.963,188.889 185.370 C 189.090 185.837,189.207 185.906,189.207 185.556 C 189.207 185.250,189.064 184.667,188.889 184.259 C 188.688 183.792,188.571 183.724,188.571 184.074 M191.659 185.194 C 191.141 185.766,190.910 185.832,190.681 185.472 C 190.489 185.169,190.380 185.387,190.376 186.080 C 190.373 186.674,190.412 187.090,190.463 187.004 C 190.514 186.918,191.045 186.307,191.643 185.646 C 192.242 184.985,192.642 184.444,192.534 184.444 C 192.426 184.444,192.032 184.782,191.659 185.194 M193.181 185.519 C 192.391 186.392,192.969 186.841,193.927 186.098 C 194.610 185.569,194.609 185.561,193.889 185.809 C 193.232 186.036,193.206 185.994,193.656 185.440 C 194.353 184.584,193.970 184.648,193.181 185.519 " stroke="none" fill="#96345d" fill-rule="evenodd"></path></g></svg>