<svg width="10" height="12" viewBox="0 0 10 12" fill="none" xmlns="http://www.w3.org/2000/svg">
<path d="M2.616 5.2V2.528H4.968C5.192 2.528 5.40533 2.54933 5.608 2.592C5.82133 2.624 6.008 2.688 6.168 2.784C6.328 2.88 6.456 3.01333 6.552 3.184C6.648 3.35467 6.696 3.57333 6.696 3.84C6.696 4.32 6.552 4.66667 6.264 4.88C5.976 5.09333 5.608 5.2 5.16 5.2H2.616ZM0.104 0.575999V12H5.64C6.152 12 6.648 11.936 7.128 11.808C7.61867 11.68 8.05067 11.4827 8.424 11.216C8.808 10.9493 9.112 10.608 9.336 10.192C9.56 9.76533 9.672 9.264 9.672 8.688C9.672 7.97333 9.496 7.36533 9.144 6.864C8.80267 6.352 8.28 5.99467 7.576 5.792C8.088 5.54667 8.472 5.232 8.728 4.848C8.99467 4.464 9.128 3.984 9.128 3.408C9.128 2.87467 9.03733 2.42667 8.856 2.064C8.68533 1.70133 8.44 1.41333 8.12 1.2C7.8 0.976 7.416 0.815999 6.968 0.719999C6.52 0.623999 6.024 0.575999 5.48 0.575999H0.104ZM2.616 10.048V6.912H5.352C5.896 6.912 6.33333 7.04 6.664 7.296C6.99467 7.54133 7.16 7.95733 7.16 8.544C7.16 8.84267 7.10667 9.088 7 9.28C6.904 9.472 6.77067 9.62667 6.6 9.744C6.42933 9.85067 6.232 9.93067 6.008 9.984C5.784 10.0267 5.54933 10.048 5.304 10.048H2.616Z" fill="#596386"/>
</svg>
