<svg width="20" height="20" viewBox="0 0 20 20" fill="none" xmlns="http://www.w3.org/2000/svg">
<path d="M18.1706 8.36727H17.4993V8.33268H9.99935V11.666H14.7089C14.0219 13.6064 12.1756 14.9993 9.99935 14.9993C7.2381 14.9993 4.99935 12.7606 4.99935 9.99935C4.99935 7.2381 7.2381 4.99935 9.99935 4.99935C11.2739 4.99935 12.4335 5.48018 13.3164 6.2656L15.6735 3.90852C14.1852 2.52143 12.1943 1.66602 9.99935 1.66602C5.39727 1.66602 1.66602 5.39727 1.66602 9.99935C1.66602 14.6014 5.39727 18.3327 9.99935 18.3327C14.6014 18.3327 18.3327 14.6014 18.3327 9.99935C18.3327 9.4406 18.2752 8.89518 18.1706 8.36727Z" fill="#FFC107"/>
<path d="M2.62695 6.1206L5.36487 8.12851C6.1057 6.29435 7.89987 4.99935 9.99945 4.99935C11.274 4.99935 12.4336 5.48018 13.3165 6.2656L15.6736 3.90852C14.1853 2.52143 12.1945 1.66602 9.99945 1.66602C6.79862 1.66602 4.02279 3.4731 2.62695 6.1206Z" fill="#FF3D00"/>
<path d="M10.0008 18.3336C12.1533 18.3336 14.1091 17.5099 15.5879 16.1703L13.0087 13.9878C12.1439 14.6454 11.0872 15.0011 10.0008 15.0003C7.83328 15.0003 5.99286 13.6182 5.29953 11.6895L2.58203 13.7832C3.9612 16.482 6.76203 18.3336 10.0008 18.3336Z" fill="#4CAF50"/>
<path d="M18.1713 8.36857H17.5V8.33398H10V11.6673H14.7096C14.3809 12.5908 13.7889 13.3978 13.0067 13.9886L13.0079 13.9877L15.5871 16.1702C15.4046 16.3361 18.3333 14.1673 18.3333 10.0007C18.3333 9.4419 18.2758 8.89648 18.1713 8.36857Z" fill="#1976D2"/>
</svg>
