<svg width="14" height="13" viewBox="0 0 14 13" fill="none" xmlns="http://www.w3.org/2000/svg">
<rect x="3" width="11" height="2" fill="#596386"/>
<rect x="3" y="5" width="11" height="2" fill="#596386"/>
<rect x="3" y="10" width="11" height="2" fill="#596386"/>
<path d="M1.28006 2.4V0H0.825821C0.744465 0.291525 0.581753 0.369491 0.195312 0.372881V0.766102H0.64955V2.4H1.28006Z" fill="#596386"/>
<path d="M0.686341 5.81356V5.71186C0.686341 5.44068 0.774477 5.39322 0.862613 5.39322C0.960918 5.39322 1.02532 5.45763 1.02532 5.66102C1.02532 5.84068 0.977867 5.9322 0.855833 6.05424L0.435494 6.48136C0.160918 6.76271 0.0761719 7.0678 0.0761719 7.4H1.65583V6.92542H0.828714C0.852443 6.85424 0.930409 6.78305 0.984646 6.72881L1.35753 6.3661C1.53719 6.18644 1.65583 5.97966 1.65583 5.65424C1.65583 5.29492 1.51346 5 0.882952 5C0.557528 5 0.360918 5.08136 0.245663 5.22373C0.130409 5.3661 0.0999007 5.5661 0.0965109 5.81356H0.686341Z" fill="#596386"/>
<path d="M0.585041 10.5434C0.585041 10.2941 0.631579 10.2176 0.751246 10.2176C0.857618 10.2176 0.907479 10.2775 0.907479 10.4703C0.907479 10.7428 0.821052 10.8027 0.638227 10.8027H0.548476V11.1883H0.704709C0.860942 11.1883 0.930748 11.2481 0.930748 11.4808C0.930748 11.7766 0.904155 11.8464 0.761219 11.8464C0.694737 11.8464 0.648199 11.8198 0.621607 11.76C0.595014 11.7002 0.578393 11.6137 0.578393 11.4808H0C0 12.0492 0.245983 12.232 0.781163 12.232C1.28975 12.232 1.54903 12.0027 1.54903 11.4741C1.54903 11.2215 1.45596 11.0088 1.17673 10.9589V10.9523C1.42271 10.8957 1.50582 10.6764 1.50582 10.4836C1.50582 10.068 1.34294 9.83203 0.764543 9.83203C0.525208 9.83203 0.342382 9.88854 0.219391 10.0049C0.0963989 10.1179 0.033241 10.2974 0.0265928 10.5434H0.585041Z" fill="#596386"/>
</svg>
