<svg width="10" height="16" viewBox="0 0 10 16" fill="none" xmlns="http://www.w3.org/2000/svg">
<path d="M0.882324 8.66113C0.890788 9.83757 1.24202 10.7262 1.93604 11.3271C2.61312 11.9238 3.53141 12.2222 4.69092 12.2222C5.85465 12.2222 6.77718 11.9238 7.4585 11.3271C8.14404 10.7262 8.49105 9.83757 8.49951 8.66113V2.71973H6.87451V8.12793C6.87451 8.43685 6.86182 8.74788 6.83643 9.06104C6.80257 9.37419 6.71582 9.66406 6.57617 9.93066C6.43652 10.193 6.2207 10.4067 5.92871 10.5718C5.63249 10.7368 5.21989 10.8193 4.69092 10.8193C4.17041 10.8193 3.76416 10.7368 3.47217 10.5718C3.17594 10.4067 2.95801 10.193 2.81836 9.93066C2.68294 9.66406 2.59619 9.37419 2.55811 9.06104C2.52425 8.74788 2.50732 8.43685 2.50732 8.12793V2.71973H0.882324V8.66113Z" fill="#596386"/>
<rect y="14" width="9.5" height="2" fill="#596386"/>
</svg>
